<svg width="20" height="20" viewBox="0 0 20 20" fill="none" xmlns="http://www.w3.org/2000/svg">
<path d="M15.9982 18.6667H1.33318V4.00164H10.1455L11.4787 2.66846H1.33318C0.979601 2.66846 0.640501 2.80892 0.39048 3.05894C0.14046 3.30896 0 3.64806 0 4.00164V18.6667C0 19.0202 0.14046 19.3593 0.39048 19.6094C0.640501 19.8594 0.979601 19.9998 1.33318 19.9998H15.9982C16.3518 19.9998 16.6909 19.8594 16.9409 19.6094C17.1909 19.3593 17.3314 19.0202 17.3314 18.6667V8.66778L15.9982 10.001V18.6667Z" fill="black"/>
<path d="M19.6846 2.56179L17.4382 0.315377C17.3385 0.215408 17.2201 0.136093 17.0897 0.0819749C16.9593 0.0278569 16.8195 0 16.6783 0C16.5371 0 16.3973 0.0278569 16.2669 0.0819749C16.1365 0.136093 16.0181 0.215408 15.9184 0.315377L6.7794 9.50768L6.03948 12.714C6.00796 12.8694 6.01127 13.0299 6.04918 13.1839C6.0871 13.3379 6.15866 13.4815 6.25874 13.6046C6.35881 13.7276 6.48491 13.8269 6.62796 13.8954C6.771 13.9638 6.92745 13.9997 7.08603 14.0005C7.168 14.0095 7.2507 14.0095 7.33267 14.0005L10.5656 13.2873L19.6846 4.08162C19.7846 3.98193 19.8639 3.86349 19.918 3.73309C19.9721 3.60269 20 3.46289 20 3.32171C20 3.18052 19.9721 3.04073 19.918 2.91033C19.8639 2.77993 19.7846 2.66149 19.6846 2.56179ZM9.87238 12.0541L7.43266 12.594L7.99926 10.1743L14.8785 3.24838L16.7583 5.12817L9.87238 12.0541ZM17.5115 4.37492L15.6317 2.49513L16.665 1.44192L18.5581 3.33504L17.5115 4.37492Z" fill="black"/>
</svg>
