<svg width="17" height="20" viewBox="0 0 17 20" fill="none" xmlns="http://www.w3.org/2000/svg">
<path d="M1.5 6.25V18.75C1.5 19.4375 2.0625 20 2.75 20H14C14.6875 20 15.25 19.4375 15.25 18.75V6.25H1.5ZM5.25 17.5H4V8.75H5.25V17.5ZM7.75 17.5H6.5V8.75H7.75V17.5ZM10.25 17.5H9V8.75H10.25V17.5ZM12.75 17.5H11.5V8.75H12.75V17.5ZM15.5625 2.5H11.5V0.9375C11.499 0.689164 11.3999 0.45128 11.2243 0.275678C11.0487 0.100077 10.8108 0.000987433 10.5625 0L6.1875 0C5.93916 0.000987433 5.70128 0.100077 5.52568 0.275678C5.35008 0.45128 5.25099 0.689164 5.25 0.9375V2.5H1.1875C0.939062 2.50066 0.700989 2.59964 0.525316 2.77532C0.349644 2.95099 0.25066 3.18906 0.25 3.4375V5H16.5V3.4375C16.4993 3.18906 16.4004 2.95099 16.2247 2.77532C16.049 2.59964 15.8109 2.50066 15.5625 2.5ZM10.25 2.5H6.5V1.26625H10.25V2.5Z" fill="black"/>
</svg>
