<svg width="16" height="16" viewBox="0 0 16 16" fill="none" xmlns="http://www.w3.org/2000/svg">
<path d="M15.9238 0.90625L15.0957 0.0781251C15.0644 0.0468751 15.0254 0.0332031 14.9844 0.0332031C14.9433 0.0332031 14.9043 0.0488282 14.873 0.0781251L13.3867 1.56445C12.7406 1.12667 11.9777 0.893256 11.1972 0.894531C10.1972 0.894531 9.19725 1.27539 8.43357 2.03906L6.44334 4.0293C6.41426 4.05866 6.39795 4.09832 6.39795 4.13965C6.39795 4.18098 6.41426 4.22063 6.44334 4.25L11.75 9.55664C11.7812 9.58789 11.8203 9.60156 11.8613 9.60156C11.9004 9.60156 11.9414 9.58594 11.9726 9.55664L13.9629 7.56641C15.3086 6.21875 15.4668 4.13477 14.4375 2.61523L15.9238 1.12891C15.9844 1.06641 15.9844 0.966797 15.9238 0.90625ZM13.0215 6.62695L11.8613 7.78711L8.21287 4.13867L9.37303 2.97852C9.85935 2.49219 10.5078 2.22266 11.1972 2.22266C11.8867 2.22266 12.5332 2.49023 13.0215 2.97852C13.5078 3.46484 13.7773 4.11328 13.7773 4.80273C13.7773 5.49219 13.5078 6.13867 13.0215 6.62695ZM9.30662 8.67773C9.27726 8.64866 9.2376 8.63234 9.19627 8.63234C9.15494 8.63234 9.11528 8.64866 9.08592 8.67773L7.78514 9.97852L6.02147 8.21484L7.3242 6.91211C7.38475 6.85156 7.38475 6.75195 7.3242 6.69141L6.61326 5.98047C6.5839 5.95139 6.54424 5.93508 6.50291 5.93508C6.46158 5.93508 6.42193 5.95139 6.39256 5.98047L5.08982 7.2832L4.24998 6.44336C4.2354 6.42877 4.21803 6.41727 4.1989 6.40955C4.17977 6.40183 4.15928 6.39805 4.13865 6.39844C4.09959 6.39844 4.05857 6.41406 4.02732 6.44336L2.03904 8.43359C0.69334 9.78125 0.535137 11.8652 1.56443 13.3848L0.0781056 14.8711C0.049027 14.9005 0.0327148 14.9401 0.0327148 14.9814C0.0327148 15.0228 0.049027 15.0624 0.0781056 15.0918L0.906231 15.9199C0.937481 15.9512 0.976543 15.9648 1.01756 15.9648C1.05857 15.9648 1.09764 15.9492 1.12889 15.9199L2.61521 14.4336C3.27342 14.8809 4.03904 15.1035 4.80467 15.1035C5.80467 15.1035 6.80467 14.7227 7.56834 13.959L9.55857 11.9688C9.61912 11.9082 9.61912 11.8086 9.55857 11.748L8.71873 10.9082L10.0215 9.60547C10.082 9.54492 10.082 9.44531 10.0215 9.38477L9.30662 8.67773ZM6.62693 13.0215C6.38789 13.2618 6.10359 13.4523 5.79048 13.582C5.47737 13.7117 5.14164 13.7781 4.80271 13.7773C4.11326 13.7773 3.46678 13.5098 2.9785 13.0215C2.73823 12.7824 2.54772 12.4981 2.41798 12.185C2.28824 11.8719 2.22185 11.5362 2.22264 11.1973C2.22264 10.5078 2.49021 9.86133 2.9785 9.37305L4.13865 8.21289L7.78709 11.8613L6.62693 13.0215Z" fill="black"/>
</svg>
