<svg width="20" height="20" viewBox="0 0 20 20" fill="none" xmlns="http://www.w3.org/2000/svg">
<path d="M9.99999 15C9.89654 14.9999 9.79473 14.9742 9.70374 14.925L1.57874 10.55L2.17124 9.44995L9.99999 13.665L17.8287 9.44995L18.4212 10.55L10.2962 14.925C10.2052 14.9742 10.1034 14.9999 9.99999 15Z" fill="black"/>
<path d="M10 18.75C9.89656 18.7499 9.79474 18.7242 9.70375 18.675L1.57875 14.3L2.17125 13.2L10 17.415L17.8287 13.2L18.4212 14.3L10.2963 18.675C10.2053 18.7242 10.1034 18.7499 10 18.75ZM10 11.25C9.89656 11.2499 9.79474 11.2242 9.70375 11.175L1.57875 6.79996C1.47953 6.74641 1.39665 6.66702 1.33888 6.57019C1.28111 6.47336 1.25061 6.36271 1.25061 6.24996C1.25061 6.13722 1.28111 6.02657 1.33888 5.92974C1.39665 5.83291 1.47953 5.75352 1.57875 5.69996L9.70375 1.32496C9.79477 1.27584 9.89657 1.25012 10 1.25012C10.1034 1.25012 10.2052 1.27584 10.2963 1.32496L18.4212 5.69996C18.5205 5.75352 18.6034 5.83291 18.6611 5.92974C18.7189 6.02657 18.7494 6.13722 18.7494 6.24996C18.7494 6.36271 18.7189 6.47336 18.6611 6.57019C18.6034 6.66702 18.5205 6.74641 18.4212 6.79996L10.2963 11.175C10.2053 11.2242 10.1034 11.2499 10 11.25ZM3.19375 6.24996L10 9.91496L16.8063 6.24996L10 2.58496L3.19375 6.24996Z" fill="black"/>
</svg>
