<svg width="52" height="52" viewBox="0 0 52 52" fill="none" xmlns="http://www.w3.org/2000/svg">
<g clip-path="url(#clip0_134_223)">
<path d="M1.11603 25.6887C1.11481 30.0577 2.26502 34.3237 4.45212 38.0839L0.90686 50.9311L14.1537 47.4838C17.8177 49.4634 21.9228 50.5007 26.0945 50.501H26.1054C39.8769 50.501 51.0871 39.3788 51.093 25.7083C51.0957 19.0839 48.4988 12.8548 43.7805 8.16835C39.0631 3.4823 32.7892 0.90024 26.1044 0.897217C12.3314 0.897217 1.12192 12.0188 1.11623 25.6887" fill="url(#paint0_linear_134_223)"/>
<path d="M0.223758 25.6807C0.222337 30.207 1.41377 34.6256 3.67885 38.5203L0.00646973 51.8281L13.7283 48.2572C17.5092 50.3031 21.766 51.3818 26.0975 51.3835H26.1087C40.3742 51.3835 51.9872 39.8612 51.9933 25.7013C51.9957 18.8389 49.3054 12.3859 44.4186 7.53154C39.5313 2.6778 33.0329 0.00282171 26.1087 0C11.8408 0 0.229647 11.5206 0.223961 25.6807H0.223758ZM8.39543 37.8496L7.88308 37.0423C5.72928 33.6434 4.59248 29.7156 4.5941 25.6824C4.59877 13.9128 14.2496 4.33736 26.1168 4.33736C31.8638 4.33978 37.2648 6.56329 41.327 10.5975C45.3891 14.6322 47.6243 19.9954 47.6229 25.6997C47.6176 37.4692 37.9666 47.0459 26.1087 47.0459H26.1002C22.2392 47.0439 18.4524 46.0148 15.1501 44.07L14.3642 43.6074L6.22133 45.7263L8.39543 37.8494V37.8496Z" fill="url(#paint1_linear_134_223)"/>
<path d="M19.6393 14.9446C19.1548 13.8758 18.6449 13.8542 18.1841 13.8355C17.8068 13.8194 17.3755 13.8206 16.9445 13.8206C16.5132 13.8206 15.8124 13.9816 15.22 14.6236C14.6271 15.2661 12.9562 16.8188 12.9562 19.9769C12.9562 23.1352 15.2739 26.1873 15.5969 26.616C15.9204 27.0439 20.0713 33.7321 26.6452 36.3051C32.1086 38.4434 33.2205 38.0181 34.4062 37.9109C35.5922 37.8041 38.2329 36.3585 38.7717 34.8596C39.3108 33.3609 39.3108 32.0762 39.1492 31.8077C38.9875 31.5403 38.5562 31.3796 37.9094 31.0588C37.2624 30.7377 34.0827 29.1848 33.4899 28.9705C32.897 28.7565 32.4658 28.6496 32.0345 29.2924C31.6032 29.9341 30.3646 31.3796 29.9871 31.8077C29.61 32.2368 29.2325 32.2903 28.5859 31.9692C27.9387 31.6471 25.8558 30.9701 23.3846 28.7835C21.4619 27.082 20.1639 24.9808 19.7866 24.3381C19.4092 23.6963 19.7461 23.3485 20.0704 23.0286C20.361 22.741 20.7174 22.279 21.0411 21.9044C21.3636 21.5295 21.4712 21.262 21.6869 20.8339C21.9028 20.4054 21.7947 20.0305 21.6333 19.7095C21.4712 19.3884 20.2144 16.214 19.6393 14.9448" fill="white"/>
</g>
<defs>
<linearGradient id="paint0_linear_134_223" x1="25.9999" y1="50.9311" x2="25.9999" y2="0.897217" gradientUnits="userSpaceOnUse">
<stop stop-color="#1FAF38"/>
<stop offset="1" stop-color="#60D669"/>
</linearGradient>
<linearGradient id="paint1_linear_134_223" x1="25.9999" y1="51.8281" x2="25.9999" y2="0" gradientUnits="userSpaceOnUse">
<stop stop-color="#F9F9F9"/>
<stop offset="1" stop-color="white"/>
</linearGradient>
<clipPath id="clip0_134_223">
<rect width="52" height="52" fill="white"/>
</clipPath>
</defs>
</svg>
