<svg width="52" height="52" viewBox="0 0 52 52" fill="none" xmlns="http://www.w3.org/2000/svg">
<g clip-path="url(#clip0_134_232)">
<path d="M26 0C11.3535 0 0 10.7287 0 25.22C0 32.8 3.10639 39.3498 8.16563 43.874C8.59016 44.254 8.8465 44.7866 8.86397 45.3564L9.00555 49.9815C9.05084 51.4566 10.5745 52.4166 11.9245 51.8206L17.085 49.5422C17.5224 49.3494 18.013 49.3134 18.4738 49.4404C20.8453 50.0925 23.3691 50.4398 26 50.4398C40.6465 50.4398 52 39.7111 52 25.2198C52 10.7285 40.6465 0 26 0Z" fill="url(#paint0_radial_134_232)"/>
<path d="M10.3872 32.5956L18.0247 20.4786C19.2394 18.5509 21.841 18.0709 23.6638 19.438L29.7383 23.9941C30.0096 24.1975 30.3398 24.3071 30.6789 24.3061C31.018 24.3051 31.3475 24.1936 31.6176 23.9886L39.8214 17.7624C40.9163 16.9314 42.3459 18.2418 41.613 19.4047L33.9755 31.5219C32.7606 33.4493 30.1588 33.9293 28.3361 32.5623L22.2615 28.0062C21.9902 27.8028 21.6601 27.6933 21.3211 27.6943C20.9821 27.6953 20.6526 27.8067 20.3826 28.0117L12.1783 34.2379C11.0835 35.0686 9.65411 33.7585 10.3872 32.5956Z" fill="white"/>
</g>
<defs>
<radialGradient id="paint0_radial_134_232" cx="0" cy="0" r="1" gradientUnits="userSpaceOnUse" gradientTransform="translate(10.0084 51.7218) scale(56.6592 56.6592)">
<stop stop-color="#0099FF"/>
<stop offset="0.60975" stop-color="#A033FF"/>
<stop offset="0.93482" stop-color="#FF5280"/>
<stop offset="1" stop-color="#FF7061"/>
</radialGradient>
<clipPath id="clip0_134_232">
<rect width="52" height="52" fill="white"/>
</clipPath>
</defs>
</svg>
