<?xml version="1.0" standalone="no"?>
<!DOCTYPE svg PUBLIC "-//W3C//DTD SVG 20010904//EN"
 "http://www.w3.org/TR/2001/REC-SVG-20010904/DTD/svg10.dtd">
<svg version="1.0" xmlns="http://www.w3.org/2000/svg"
 width="512.000000pt" height="512.000000pt" viewBox="0 0 512.000000 512.000000"
 preserveAspectRatio="xMidYMid meet">

<g transform="translate(0.000000,512.000000) scale(0.100000,-0.100000)"
fill="#000000" stroke="none">
<path d="M2100 4683 c-24 -9 -52 -36 -61 -60 -4 -11 -24 -135 -44 -275 -19
-139 -38 -266 -41 -281 -5 -23 -20 -35 -87 -68 -45 -23 -126 -70 -180 -106
l-100 -64 -241 97 c-132 53 -261 103 -285 110 -68 21 -102 6 -145 -64 -107
-178 -417 -718 -427 -746 -22 -61 -9 -75 240 -269 l234 -183 1 -215 1 -216
-219 -169 c-252 -195 -270 -213 -262 -262 6 -42 437 -788 474 -821 38 -34 70
-26 371 93 l264 105 36 -28 c49 -38 195 -125 263 -156 44 -20 58 -32 62 -53 3
-15 22 -141 41 -280 20 -140 40 -264 45 -277 5 -13 19 -33 31 -44 22 -21 29
-21 489 -21 507 0 495 -1 519 57 6 15 29 154 51 307 22 154 41 280 43 281 1 1
41 23 90 48 48 25 127 72 175 103 48 31 92 57 97 57 6 0 126 -46 268 -103 142
-56 276 -104 296 -107 32 -4 43 -1 68 23 24 23 392 643 457 771 23 46 20 78
-13 115 -16 18 -126 107 -243 197 l-213 165 1 215 2 215 228 178 c126 98 235
185 242 195 30 42 16 72 -217 474 -194 334 -234 397 -262 412 -20 10 -44 15
-59 12 -14 -3 -145 -53 -291 -111 l-267 -105 -88 60 c-49 33 -130 80 -180 105
-83 41 -92 49 -97 78 -4 18 -22 148 -42 288 -23 158 -43 265 -53 282 -9 15
-29 32 -45 38 -31 10 -898 13 -927 3z m675 -1405 c123 -36 207 -88 311 -192
146 -147 211 -287 221 -486 17 -307 -144 -580 -422 -715 -261 -127 -583 -89
-798 95 -123 105 -203 223 -246 365 -34 114 -36 304 -2 422 32 114 98 222 195
319 118 118 246 186 398 214 86 15 252 4 343 -22z"/>
</g>
</svg>
