<?xml version="1.0" standalone="no"?>
<!DOCTYPE svg PUBLIC "-//W3C//DTD SVG 20010904//EN"
 "http://www.w3.org/TR/2001/REC-SVG-20010904/DTD/svg10.dtd">
<svg version="1.0" xmlns="http://www.w3.org/2000/svg"
 width="244.000000pt" height="231.000000pt" viewBox="0 0 244.000000 231.000000"
 preserveAspectRatio="xMidYMid meet">
<metadata>
Created by potrace 1.16, written by Peter Selinger 2001-2019
</metadata>
<g transform="translate(0.000000,231.000000) scale(0.100000,-0.100000)"
fill="#000000" stroke="none">
<path d="M236 2114 c-14 -14 -16 -91 -16 -697 0 -749 0 -743 60 -838 93 -144
298 -243 583 -281 119 -16 417 -15 530 0 313 45 520 156 603 327 l29 60 3 707
c2 636 1 708 -13 722 -23 22 -51 20 -69 -6 -14 -19 -16 -67 -16 -313 l-1 -290
-22 30 c-113 155 -278 252 -509 302 -117 25 -428 25 -547 0 -225 -48 -409
-156 -500 -294 l-31 -46 0 300 c0 278 -1 301 -18 316 -23 21 -46 22 -66 1z
m1358 -842 c75 -34 129 -84 167 -154 32 -59 34 -69 34 -158 0 -79 -4 -103 -23
-141 -37 -75 -87 -125 -160 -161 l-67 -33 -420 0 c-415 0 -421 0 -469 23 -80
37 -132 85 -168 160 -30 59 -33 76 -33 152 0 71 4 94 26 141 44 94 129 165
226 188 21 5 218 9 438 8 393 -2 401 -2 449 -25z"/>
</g>
</svg>
