<?xml version="1.0" standalone="no"?>
<!DOCTYPE svg PUBLIC "-//W3C//DTD SVG 20010904//EN"
 "http://www.w3.org/TR/2001/REC-SVG-20010904/DTD/svg10.dtd">
<svg version="1.0" xmlns="http://www.w3.org/2000/svg"
 width="200.000000pt" height="200.000000pt" viewBox="0 0 200.000000 200.000000"
 preserveAspectRatio="xMidYMid meet">

<g transform="translate(0.000000,200.000000) scale(0.100000,-0.100000)"
fill="#000000" stroke="none">
<path d="M666 1928 c-13 -20 -13 -37 0 -138 19 -149 21 -158 44 -170 22 -12
66 4 75 27 10 27 -26 267 -43 286 -21 24 -59 21 -76 -5z"/>
<path d="M1128 1852 c-28 -6 -161 -236 -153 -262 9 -29 47 -45 72 -31 18 9
131 188 148 233 14 35 -24 70 -67 60z"/>
<path d="M262 1738 c-31 -31 -14 -63 87 -161 54 -53 106 -97 115 -97 21 0 56
35 56 56 0 9 -44 61 -97 115 -98 101 -130 118 -161 87z"/>
<path d="M1297 1463 c-120 -47 -144 -66 -132 -103 14 -46 40 -45 171 5 67 26
131 56 141 67 16 18 16 22 2 46 -9 16 -24 28 -39 29 -14 1 -78 -18 -143 -44z"/>
<path d="M67 1332 c-21 -22 -21 -42 -4 -67 11 -14 42 -22 143 -35 142 -19 170
-15 180 26 12 47 -17 63 -151 79 -149 19 -149 19 -168 -3z"/>
<path d="M722 1284 c-15 -10 -22 -25 -22 -47 0 -18 85 -286 188 -597 170 -511
191 -566 215 -580 52 -29 68 -8 196 257 64 133 122 248 129 255 7 7 122 65
255 129 265 128 286 144 257 196 -14 24 -69 45 -580 215 -311 103 -576 188
-590 188 -14 0 -36 -7 -48 -16z"/>
<path d="M268 960 c-118 -71 -138 -93 -119 -129 25 -46 66 -32 253 86 49 30
60 69 28 95 -12 10 -27 18 -34 18 -6 0 -64 -32 -128 -70z"/>
<path d="M604 829 c-15 -5 -34 -42 -68 -132 -27 -68 -46 -133 -44 -143 2 -10
15 -25 30 -33 24 -14 28 -14 46 2 11 10 41 74 67 141 38 99 45 127 36 144 -12
23 -39 32 -67 21z"/>
</g>
</svg>
