<svg id="support_agent_black_24dp_1_" data-name="support_agent_black_24dp (1)" xmlns="http://www.w3.org/2000/svg" width="80" height="80" viewBox="0 0 80 80">
  <g id="Group_5093" data-name="Group 5093">
    <rect id="Rectangle_3260" data-name="Rectangle 3260" width="80" height="80" fill="none"/>
  </g>
  <g id="Group_5095" data-name="Group 5095" transform="translate(6.667 10)">
    <g id="Group_5094" data-name="Group 5094">
      <path id="Path_44276" data-name="Path 44276" d="M65.333,33.733c0-18.3-14.2-30.733-30-30.733-15.633,0-30,12.167-30,30.933A6.559,6.559,0,0,0,2,39.667v6.667A6.686,6.686,0,0,0,8.667,53H12V32.667a23.333,23.333,0,1,1,46.667,0V56.333H32V63H58.667a6.686,6.686,0,0,0,6.667-6.667V52.267A6.163,6.163,0,0,0,68.667,46.8V39.133A6.138,6.138,0,0,0,65.333,33.733Z" transform="translate(-2 -3)" fill="#363a77"/>
      <ellipse id="Ellipse_705" data-name="Ellipse 705" cx="3" cy="3.5" rx="3" ry="3.5" transform="translate(20.333 30)" fill="#363a77"/>
      <ellipse id="Ellipse_706" data-name="Ellipse 706" cx="3" cy="3.5" rx="3" ry="3.5" transform="translate(40.333 30)" fill="#363a77"/>
      <path id="Path_44277" data-name="Path 44277" d="M45.987,22.767A20.136,20.136,0,0,0,26.154,6c-10.1,0-20.967,8.367-20.1,21.5a26.915,26.915,0,0,0,16.2-19.633A26.79,26.79,0,0,0,45.987,22.767Z" transform="translate(7.346 4)" fill="#363a77"/>
    </g>
  </g>
</svg>
