<svg xmlns="http://www.w3.org/2000/svg" width="80" height="80" viewBox="0 0 80 80">
  <g id="create_new_bot_ic" data-name="create new bot ic" transform="translate(-160 -208)">
    <rect id="Rectangle_3259" data-name="Rectangle 3259" width="80" height="80" transform="translate(160 208)" fill="none"/>
    <g id="Group_5107" data-name="Group 5107" transform="translate(168 216)">
      <circle id="Ellipse_2" data-name="Ellipse 2" cx="32" cy="32" r="32" fill="#35f5c6" opacity="0.5"/>
      <rect id="Image_1" data-name="Image 1" width="44" height="44" rx="22" transform="translate(10 10)" fill="#363a77"/>
      <g id="robotic" transform="translate(20 20)">
        <path id="Path_1" data-name="Path 1" d="M24.968,23.421H23.806V22.26a1.938,1.938,0,0,0-1.935-1.935H19.935V19.163a.387.387,0,0,0-.387-.387h-3.1v-.829a1.548,1.548,0,1,0-.774,0v.829h-3.1a.387.387,0,0,0-.387.387v1.161H10.258A1.938,1.938,0,0,0,8.323,22.26v1.161H7.161A1.163,1.163,0,0,0,6,24.582v4.645a1.163,1.163,0,0,0,1.161,1.161H8.323V31.55a1.938,1.938,0,0,0,1.935,1.935H21.871a1.938,1.938,0,0,0,1.935-1.935V30.389h1.161a1.163,1.163,0,0,0,1.161-1.161V24.582A1.163,1.163,0,0,0,24.968,23.421ZM15.29,16.453a.774.774,0,1,1,.774.774A.775.775,0,0,1,15.29,16.453ZM7.161,29.615a.388.388,0,0,1-.387-.387V24.582a.388.388,0,0,1,.387-.387H8.323v5.419ZM12.968,19.55h6.194v.774H12.968Zm10.065,12a1.163,1.163,0,0,1-1.161,1.161H10.258A1.163,1.163,0,0,1,9.1,31.55V22.26A1.163,1.163,0,0,1,10.258,21.1H21.871a1.163,1.163,0,0,1,1.161,1.161Zm2.323-2.323a.388.388,0,0,1-.387.387H23.806V24.2h1.161a.388.388,0,0,1,.387.387Z" transform="translate(-4.065 -9.486)" fill="#fff"/>
        <path id="Path_2" data-name="Path 2" d="M29.355,46.9H22.387a.387.387,0,0,0-.387.387v.387a3.871,3.871,0,1,0,7.742,0v-.387A.387.387,0,0,0,29.355,46.9Zm-3.484,3.871a3.1,3.1,0,0,1-3.1-3.1h6.194A3.1,3.1,0,0,1,25.871,50.776Z" transform="translate(-13.871 -29.099)" fill="#fff"/>
        <path id="Path_3" data-name="Path 3" d="M21.1,38.453A1.548,1.548,0,1,0,19.548,40,1.55,1.55,0,0,0,21.1,38.453Zm-2.323,0a.774.774,0,1,1,.774.774A.775.775,0,0,1,18.774,38.453Z" transform="translate(-11.419 -22.97)" fill="#fff"/>
        <path id="Path_4" data-name="Path 4" d="M39.548,36.9A1.548,1.548,0,1,0,41.1,38.453,1.55,1.55,0,0,0,39.548,36.9Zm0,2.323a.774.774,0,1,1,.774-.774A.775.775,0,0,1,39.548,39.228Z" transform="translate(-23.677 -22.97)" fill="#fff"/>
        <path id="Path_5" data-name="Path 5" d="M6.92,9.308a.387.387,0,0,0,.661-.274V7.873H9.9a1.163,1.163,0,0,0,1.161-1.161V2.066A1.163,1.163,0,0,0,9.9.9H2.161A1.163,1.163,0,0,0,1,2.066V6.711A1.163,1.163,0,0,0,2.161,7.873H5.485Zm-5.146-2.6V2.066a.388.388,0,0,1,.387-.387H9.9a.388.388,0,0,1,.387.387V6.711A.388.388,0,0,1,9.9,7.1H7.194a.387.387,0,0,0-.387.387V8.1l-.888-.888A.387.387,0,0,0,5.645,7.1H2.161a.387.387,0,0,1-.387-.387Z" transform="translate(-1 -0.905)" fill="#fff"/>
        <path id="Path_6" data-name="Path 6" d="M45.9,4.9H38.161A1.163,1.163,0,0,0,37,6.066v4.645a1.163,1.163,0,0,0,1.161,1.161h2.323v1.161a.387.387,0,0,0,.661.274l1.435-1.435H45.9a1.163,1.163,0,0,0,1.161-1.161V6.066A1.163,1.163,0,0,0,45.9,4.9Zm.387,5.806a.388.388,0,0,1-.387.387H42.419a.386.386,0,0,0-.274.113l-.888.888v-.614a.387.387,0,0,0-.387-.387h-2.71a.388.388,0,0,1-.387-.387V6.066a.388.388,0,0,1,.387-.387H45.9a.388.388,0,0,1,.387.387Z" transform="translate(-23.065 -3.357)" fill="#fff"/>
        <path id="Path_7" data-name="Path 7" d="M5,4.9h6.968v.774H5Z" transform="translate(-3.452 -3.357)" fill="#fff"/>
        <path id="Path_8" data-name="Path 8" d="M5,12.9h6.968v.774H5Z" transform="translate(-3.452 -8.26)" fill="#fff"/>
        <path id="Path_9" data-name="Path 9" d="M7,8.9h5.419v.774H7Z" transform="translate(-4.677 -5.808)" fill="#fff"/>
        <path id="Path_10" data-name="Path 10" d="M41,8.9h6.968v.774H41Z" transform="translate(-25.516 -5.808)" fill="#fff"/>
        <path id="Path_11" data-name="Path 11" d="M41,16.905h6.968v.774H41Z" transform="translate(-25.516 -10.711)" fill="#fff"/>
        <path id="Path_12" data-name="Path 12" d="M43,12.9h5.419v.774H43Z" transform="translate(-26.742 -8.26)" fill="#fff"/>
      </g>
    </g>
  </g>
</svg>
