<?xml version="1.0" standalone="no"?>
<!DOCTYPE svg PUBLIC "-//W3C//DTD SVG 20010904//EN"
 "http://www.w3.org/TR/2001/REC-SVG-20010904/DTD/svg10.dtd">
<svg version="1.0" xmlns="http://www.w3.org/2000/svg"
 width="512.000000pt" height="512.000000pt" viewBox="0 0 512.000000 512.000000"
 preserveAspectRatio="xMidYMid meet">

<g transform="translate(0.000000,512.000000) scale(0.100000,-0.100000)"
fill="#000000" stroke="none">
<path d="M1915 4370 l-110 -110 -367 0 -368 0 0 -210 0 -210 1490 0 1490 0 0
210 0 210 -368 0 -367 0 -110 110 -110 110 -535 0 -535 0 -110 -110z"/>
<path d="M1280 2322 c0 -1417 -2 -1355 57 -1464 37 -67 121 -143 200 -181 l68
-32 955 0 955 0 75 36 c97 47 162 112 209 209 l36 75 3 1328 2 1327 -1280 0
-1280 0 0 -1298z"/>
</g>
</svg>
