<svg id="filter_alt_black_24dp" xmlns="http://www.w3.org/2000/svg" width="80" height="80" viewBox="0 0 80 80">
  <path id="Path_44286" data-name="Path 44286" d="M0,0H80m0,80H0" fill="none"/>
  <path id="Path_44287" data-name="Path 44287" d="M15.935,12H56.1L35.98,37.2ZM4.888,10.44C13,20.8,27.986,40,27.986,40V64A4.02,4.02,0,0,0,32,68h8.034a4.02,4.02,0,0,0,4.017-4V40S59,20.8,67.111,10.44A3.99,3.99,0,0,0,63.938,4H8.062A3.99,3.99,0,0,0,4.888,10.44Z" transform="translate(3.995 4)" fill="#363a77"/>
  <path id="Path_44288" data-name="Path 44288" d="M0,0H80V80H0Z" fill="none"/>
</svg>
