<svg width="16" height="15" viewBox="0 0 16 15" fill="none" xmlns="http://www.w3.org/2000/svg">
<path fill-rule="evenodd" clip-rule="evenodd" d="M4.33257 1.31963C5.31539 0.472133 6.56891 0.00406954 7.86667 0C10.5118 0 12.7076 1.96667 12.9466 4.50268C14.512 4.72393 15.7333 6.03472 15.7333 7.64345C15.7333 9.40952 14.2603 10.8167 12.4755 10.8167H9.83333C9.70294 10.8167 9.57788 10.7649 9.48567 10.6727C9.39347 10.5805 9.34167 10.4554 9.34167 10.325C9.34167 10.1946 9.39347 10.0695 9.48567 9.97734C9.57788 9.88513 9.70294 9.83333 9.83333 9.83333H12.4765C13.746 9.83333 14.75 8.8382 14.75 7.64345C14.75 6.44772 13.747 5.45258 12.4755 5.45258H11.9839V4.96092C11.9849 2.77792 10.1559 0.983333 7.86667 0.983333C6.80454 0.987576 5.77889 1.37119 4.97468 2.065C4.2303 2.70613 3.8409 3.47903 3.8409 4.08575V4.52628L3.40332 4.57447C2.0296 4.72492 0.983333 5.8528 0.983333 7.19603C0.983333 8.63858 2.19283 9.83333 3.71798 9.83333H5.9C6.0304 9.83333 6.15546 9.88513 6.24766 9.97734C6.33987 10.0695 6.39167 10.1946 6.39167 10.325C6.39167 10.4554 6.33987 10.5805 6.24766 10.6727C6.15546 10.7649 6.0304 10.8167 5.9 10.8167H3.71798C1.67953 10.8167 0 9.2099 0 7.19603C0 5.46242 1.2449 4.02675 2.89297 3.66292C3.03358 2.8143 3.57933 1.96863 4.33257 1.31963Z" fill="white"/>
<path fill-rule="evenodd" clip-rule="evenodd" d="M7.51826 4.07706C7.56393 4.03128 7.61819 3.99495 7.67792 3.97016C7.73765 3.94538 7.80169 3.93262 7.86636 3.93262C7.93103 3.93262 7.99507 3.94538 8.0548 3.97016C8.11453 3.99495 8.16879 4.03128 8.21446 4.07706L11.1645 7.02706C11.2568 7.11938 11.3086 7.2446 11.3086 7.37516C11.3086 7.50573 11.2568 7.63094 11.1645 7.72326C11.0721 7.81559 10.9469 7.86745 10.8164 7.86745C10.6858 7.86745 10.5606 7.81559 10.4683 7.72326L8.35803 5.61205V14.2585C8.35803 14.3889 8.30623 14.514 8.21402 14.6062C8.12182 14.6984 7.99676 14.7502 7.86636 14.7502C7.73596 14.7502 7.6109 14.6984 7.5187 14.6062C7.42649 14.514 7.37469 14.3889 7.37469 14.2585V5.61205L5.26446 7.72326C5.17214 7.81559 5.04692 7.86745 4.91636 7.86745C4.7858 7.86745 4.66058 7.81559 4.56826 7.72326C4.47594 7.63094 4.42407 7.50573 4.42407 7.37516C4.42407 7.2446 4.47594 7.11938 4.56826 7.02706L7.51826 4.07706Z" fill="white"/>
</svg>
