<svg id="groups_black_24dp_1_" data-name="groups_black_24dp (1)" xmlns="http://www.w3.org/2000/svg" width="80" height="80" viewBox="0 0 80 80">
  <rect id="Rectangle_3261" data-name="Rectangle 3261" width="80" height="80" fill="none"/>
  <g id="Group_5096" data-name="Group 5096" transform="translate(2 21)">
    <path id="Path_44280" data-name="Path 44280" d="M12.526,27.921a6.263,6.263,0,1,0-6.263-6.263A6.282,6.282,0,0,0,12.526,27.921Zm3.539,3.445a21.867,21.867,0,0,0-3.539-.313,21.766,21.766,0,0,0-8.706,1.816A6.3,6.3,0,0,0,0,38.663v4.917H14.092V38.537A14.088,14.088,0,0,1,16.065,31.366Zm46.567-3.445a6.263,6.263,0,1,0-6.263-6.263A6.282,6.282,0,0,0,62.632,27.921ZM75.159,38.663a6.3,6.3,0,0,0-3.821-5.793,21.289,21.289,0,0,0-12.245-1.5,14.088,14.088,0,0,1,1.973,7.171v5.042H75.159Zm-24.3-8.706a32.7,32.7,0,0,0-13.278-2.818A33.229,33.229,0,0,0,24.3,29.957a9.357,9.357,0,0,0-5.512,8.581v5.042H56.369V38.537A9.357,9.357,0,0,0,50.857,29.957ZM25.272,37.316c.282-.72.407-1.221,2.85-2.161a26.378,26.378,0,0,1,18.915,0c2.411.939,2.537,1.441,2.85,2.161ZM37.579,12.263a3.132,3.132,0,1,1-3.132,3.132,3.141,3.141,0,0,1,3.132-3.132m0-6.263a9.395,9.395,0,1,0,9.395,9.395A9.382,9.382,0,0,0,37.579,6Z" transform="translate(0 -6)" fill="#363a77"/>
  </g>
</svg>
