<svg width="18" height="20" viewBox="0 0 18 20" fill="none" xmlns="http://www.w3.org/2000/svg">
<path d="M8.75 20.0001C9.41304 20.0001 10.0489 19.7367 10.5178 19.2679C10.9866 18.799 11.25 18.1632 11.25 17.5001H6.25C6.25 18.1632 6.51339 18.799 6.98223 19.2679C7.45107 19.7367 8.08696 20.0001 8.75 20.0001ZM8.75 2.39762L7.75375 2.59887C6.6237 2.82912 5.60791 3.44275 4.87831 4.3359C4.14872 5.22904 3.75012 6.34685 3.75 7.50012C3.75 8.28512 3.5825 10.2464 3.17625 12.1776C2.97625 13.1364 2.70625 14.1351 2.3475 15.0001H15.1525C14.7937 14.1351 14.525 13.1376 14.3237 12.1776C13.9175 10.2464 13.75 8.28512 13.75 7.50012C13.7496 6.34706 13.3509 5.22955 12.6213 4.33666C11.8917 3.44377 10.8761 2.83032 9.74625 2.60012L8.75 2.39637V2.39762ZM16.525 15.0001C16.8038 15.5589 17.1262 16.0014 17.5 16.2501H0C0.37375 16.0014 0.69625 15.5589 0.975 15.0001C2.1 12.7501 2.5 8.60012 2.5 7.50012C2.5 4.47512 4.65 1.95012 7.50625 1.37387C7.4888 1.20006 7.50798 1.02452 7.56254 0.858584C7.6171 0.692642 7.70584 0.539979 7.82303 0.41044C7.94022 0.2809 8.08325 0.17736 8.24292 0.106498C8.40258 0.0356353 8.57532 -0.000976562 8.75 -0.000976562C8.92468 -0.000976563 9.09742 0.0356353 9.25709 0.106498C9.41675 0.17736 9.55978 0.2809 9.67697 0.41044C9.79416 0.539979 9.8829 0.692642 9.93746 0.858584C9.99202 1.02452 10.0112 1.20006 9.99375 1.37387C11.4066 1.66124 12.6767 2.42807 13.589 3.54449C14.5014 4.66092 14.9998 6.05834 15 7.50012C15 8.60012 15.4 12.7501 16.525 15.0001Z" fill="black"/>
</svg>
