<?xml version="1.0" standalone="no"?>
<!DOCTYPE svg PUBLIC "-//W3C//DTD SVG 20010904//EN"
 "http://www.w3.org/TR/2001/REC-SVG-20010904/DTD/svg10.dtd">
<svg version="1.0" xmlns="http://www.w3.org/2000/svg"
 width="512.000000pt" height="512.000000pt" viewBox="0 0 512.000000 512.000000"
 preserveAspectRatio="xMidYMid meet">

<g transform="translate(0.000000,512.000000) scale(0.100000,-0.100000)"
fill="#000000" stroke="none">
<path d="M2330 5109 c-488 -45 -949 -229 -1350 -537 -195 -150 -448 -432 -594
-662 -64 -100 -186 -351 -231 -474 -117 -318 -171 -703 -147 -1039 37 -530
214 -994 540 -1417 156 -203 446 -460 678 -603 757 -463 1710 -499 2499 -93
255 131 431 261 646 475 258 259 439 534 573 873 133 337 194 734 168 1093
-48 653 -311 1221 -773 1670 -321 312 -712 533 -1133 640 -297 75 -588 100
-876 74z m308 -1284 c41 -18 73 -45 105 -90 22 -29 22 -39 27 -495 l5 -465
465 -5 c456 -5 466 -5 495 -27 141 -101 141 -265 0 -366 -29 -22 -39 -22 -495
-27 l-465 -5 -5 -465 c-5 -456 -5 -466 -27 -495 -67 -95 -167 -129 -261 -89
-38 16 -95 64 -115 99 -9 14 -13 157 -17 485 l-5 465 -465 5 c-456 5 -466 5
-495 27 -95 67 -129 167 -89 261 16 38 64 95 99 115 14 9 157 13 485 17 l465
5 5 465 c4 328 8 471 17 485 19 33 76 83 113 99 46 20 111 20 158 1z"/>
</g>
</svg>
