<svg xmlns="http://www.w3.org/2000/svg" xmlns:xlink="http://www.w3.org/1999/xlink" width="62" height="62" viewBox="0 0 62 62"><defs><style>.a{fill:#fff;stroke:#00b863;stroke-width:3px;}.b{fill:#00b863;}.c{stroke:none;}.d{fill:none;}.e{filter:url(#a);}</style><filter id="a" x="0" y="0" width="62" height="62" filterUnits="userSpaceOnUse"><feOffset input="SourceAlpha"/><feGaussianBlur stdDeviation="3" result="b"/><feFlood flood-opacity="0.161"/><feComposite operator="in" in2="b"/><feComposite in="SourceGraphic"/></filter></defs><g transform="translate(-669 -183)"><g class="e" transform="matrix(1, 0, 0, 1, 669, 183)"><g class="a" transform="translate(9 9)"><circle class="c" cx="22" cy="22" r="22"/><circle class="d" cx="22" cy="22" r="20.5"/></g></g><path class="b" d="M17.855,4.552A10.41,10.41,0,0,0,1.477,17.109L0,22.5l5.517-1.448a10.375,10.375,0,0,0,4.973,1.266h0A10.506,10.506,0,0,0,21,11.911a10.447,10.447,0,0,0-3.145-7.359ZM10.5,20.564a8.634,8.634,0,0,1-4.406-1.2l-.314-.187L2.5,20.03l.872-3.192-.206-.328a8.666,8.666,0,1,1,16.073-4.6A8.746,8.746,0,0,1,10.5,20.564Zm4.744-6.478c-.258-.131-1.538-.759-1.777-.844s-.413-.131-.586.131-.67.844-.825,1.022-.3.2-.562.066A7.078,7.078,0,0,1,7.95,11.367c-.267-.459.267-.427.764-1.42a.482.482,0,0,0-.023-.455c-.066-.131-.586-1.411-.8-1.931s-.427-.436-.586-.445-.323-.009-.5-.009a.963.963,0,0,0-.694.323A2.922,2.922,0,0,0,5.2,9.6a5.094,5.094,0,0,0,1.059,2.691,11.619,11.619,0,0,0,4.444,3.928,5.088,5.088,0,0,0,3.122.652,2.663,2.663,0,0,0,1.753-1.238,2.175,2.175,0,0,0,.15-1.238c-.061-.117-.234-.183-.492-.309Z" transform="translate(690 202)"/></g></svg>